<?xml version="1.0" standalone="no"?>
<!DOCTYPE svg PUBLIC "-//W3C//DTD SVG 20010904//EN"
 "http://www.w3.org/TR/2001/REC-SVG-20010904/DTD/svg10.dtd">
<svg version="1.0" xmlns="http://www.w3.org/2000/svg"
 width="712.000000pt" height="712.000000pt" viewBox="0 0 712.000000 712.000000"
 preserveAspectRatio="xMidYMid meet">
<metadata>
Created by potrace 1.14, written by Peter Selinger 2001-2017
</metadata>
<g transform="translate(0.000000,712.000000) scale(0.100000,-0.100000)"
fill="#000000" stroke="none">
<path d="M1571 6660 c-155 -22 -380 -94 -532 -170 -451 -228 -755 -621 -894
-1155 -104 -400 -107 -900 -9 -1425 14 -74 27 -143 31 -154 4 -13 27 24 82
131 233 451 502 801 796 1038 223 180 474 300 732 352 139 28 423 25 573 -6
609 -124 1236 -571 1871 -1331 50 -61 94 -110 97 -110 3 0 2 78 -1 173 -23
607 -166 1150 -404 1537 -242 392 -597 689 -1063 888 -212 91 -500 178 -720
217 -109 20 -457 29 -559 15z"/>
<path d="M6580 4393 c-110 -5 -389 -33 -500 -49 -542 -79 -1002 -278 -1450
-625 -201 -155 -438 -421 -682 -762 -364 -509 -543 -913 -628 -1412 -23 -140
-111 -828 -105 -833 3 -3 645 573 1729 1554 226 204 412 370 414 369 2 -2
-420 -485 -937 -1074 -518 -589 -941 -1074 -941 -1079 0 -10 274 3 485 23 726
69 1246 272 1850 725 380 285 641 621 871 1121 184 400 286 783 349 1309 19
164 65 657 65 704 l0 36 -227 -2 c-126 -1 -257 -3 -293 -5z"/>
<path d="M17 3483 c-7 -10 27 -417 48 -578 73 -571 211 -941 530 -1420 120
-181 211 -280 380 -415 379 -302 761 -437 1520 -539 296 -39 335 -44 335 -36
0 4 -155 183 -344 398 -189 216 -478 545 -642 732 -164 187 -272 316 -239 287
32 -30 357 -329 722 -665 365 -337 669 -614 674 -615 9 -4 9 5 -12 273 -39
499 -153 885 -368 1242 -137 228 -275 408 -441 573 -326 326 -701 534 -1185
654 -210 53 -482 90 -725 101 -74 3 -160 8 -192 11 -31 2 -59 1 -61 -3z"/>
</g>
</svg>
