<svg width="152" height="165" viewBox="0 0 152 165" fill="none" xmlns="http://www.w3.org/2000/svg">
<path d="M151.777 78.3C147.967 59.93 138.837 43.12 125.387 29.67C111.947 16.24 95.1268 7.13 76.7268 3.31C75.0768 2.97 73.4568 4.03999 73.1068 5.67999L71.4768 13.43C71.3068 14.22 71.4668 15.05 71.9168 15.73C72.3568 16.43 73.0568 16.89 73.8568 17.06C89.4968 20.31 103.857 28.12 115.407 39.66C126.827 51.08 134.637 65.45 137.977 81.18C138.087 81.78 138.397 82.32 138.797 82.71C139.507 83.43 140.547 83.76 141.597 83.55L149.407 81.92C151.067 81.57 152.127 79.95 151.777 78.3Z" fill="#CDD67D"/>
<path d="M101.567 89.04C99.7069 80.41 95.3469 72.4801 88.9669 66.0901C82.6269 59.7601 74.6869 55.45 65.9769 53.6C64.3269 53.25 62.7069 54.3101 62.3569 55.9601L60.6769 63.72C60.5169 64.52 60.6569 65.36 61.1169 66.04C61.2269 66.22 61.3569 66.38 61.5169 66.54C61.9269 66.95 62.4569 67.24 63.0469 67.37C75.2269 69.93 85.1369 79.8301 87.6869 92.0101C87.8569 92.8001 88.3369 93.5001 89.0369 93.9501C89.7169 94.4001 90.5369 94.5501 91.3369 94.3801L99.2169 92.67C100.017 92.51 100.707 92.03 101.147 91.35C101.587 90.66 101.737 89.84 101.567 89.04Z" fill="#CDD67D"/>
<path d="M126.677 83.67C123.837 70.15 117.097 57.76 107.187 47.86C97.3169 37.99 84.9268 31.27 71.3468 28.42C69.7068 28.08 68.0768 29.13 67.7268 30.78L66.0569 38.55C65.8969 39.35 66.0368 40.18 66.4868 40.86C66.6068 41.04 66.7468 41.21 66.8968 41.36C67.3068 41.78 67.8369 42.07 68.4269 42.19C79.2868 44.46 89.2368 49.88 97.2068 57.86C105.137 65.78 110.587 75.73 112.947 86.58C113.297 88.22 114.927 89.27 116.557 88.93L124.307 87.3C125.967 86.95 127.027 85.32 126.677 83.67Z" fill="#CDD67D"/>
<path d="M134.877 146.19C133.207 147.91 131.107 149.85 128.587 152C127.507 152.91 126.337 153.86 125.137 154.8C117.597 160.71 107.337 167.04 100.397 164.37C55.8769 147.09 10.2369 94.38 0.246902 35.38C-1.7831 23.19 9.11686 12.59 17.8269 6.25C19.1169 5.26 20.4069 4.38997 21.5769 3.65997C23.9569 2.07997 26.0169 0.86 27.7369 0L44.9769 44.48C43.5369 46.78 42.0869 49.32 40.6269 52.11C39.8469 53.61 39.0269 55.25 38.3369 56.84C36.9669 59.82 35.9269 62.67 35.9269 64.48C35.9269 78.09 60.3969 115.54 73.1169 119.85C75.2769 120.58 80.0169 120.15 84.9269 119.38H84.9669C86.6469 119.12 88.3769 118.82 90.0069 118.52C93.7769 117.8 97.2369 117.04 100.397 116.23L134.877 146.19Z" fill="#587789"/>
<path d="M39.6369 21.04C44.4369 33.35 46.8469 43.9 45.0369 44.61C43.2269 45.32 37.8569 35.92 33.0569 23.61C28.2669 11.3 25.8469 0.749997 27.6669 0.0399966C29.4769 -0.670003 34.8469 8.74 39.6369 21.04Z" fill="#234050"/>
<path d="M115.357 133.77C105.787 125.51 99.0169 117.66 100.237 116.26C101.457 114.84 110.207 120.39 119.767 128.64C129.337 136.91 136.107 144.75 134.887 146.16C133.677 147.57 124.927 142.02 115.357 133.77Z" fill="#234050"/>
</svg>
