<svg width="20" height="7" viewBox="0 0 20 7" fill="none" xmlns="http://www.w3.org/2000/svg">
<path fill-rule="evenodd" clip-rule="evenodd" d="M0.0808743 0.428723C0.172258 0.246784 0.332059 0.108507 0.525239 0.0442093C0.71842 -0.0200881 0.929213 -0.00515817 1.1114 0.0857262L9.99701 4.52622L18.8811 0.0841882C18.9715 0.0380158 19.0701 0.0101909 19.1713 0.00231755C19.2725 -0.00555583 19.3742 0.00667804 19.4707 0.038314C19.5671 0.06995 19.6563 0.120362 19.7332 0.186644C19.81 0.252926 19.873 0.333767 19.9185 0.424506C19.964 0.515244 19.991 0.614086 19.9981 0.715333C20.0052 0.816579 19.9922 0.918228 19.9598 1.01442C19.9274 1.11061 19.8763 1.19944 19.8094 1.27578C19.7426 1.35213 19.6612 1.41448 19.5702 1.45925L10.3415 6.07356C10.2346 6.12715 10.1166 6.15505 9.99701 6.15505C9.87739 6.15505 9.75942 6.12715 9.65248 6.07356L0.423871 1.45925C0.241932 1.36787 0.103654 1.20807 0.039357 1.01489C-0.0249403 0.821706 -0.0100101 0.610912 0.0808743 0.428723V0.428723Z" fill="#89C831"/>
</svg>
