<svg width="165" height="180" viewBox="0 0 165 180" fill="none" xmlns="http://www.w3.org/2000/svg">
<path d="M164.42 65.78H0.0100098L16.16 52.86L23.77 46.76L82.22 0L140.66 46.76L148.24 52.82L164.42 65.78Z" fill="#80C7CF"/>
<path d="M8.98999 65.7699L82.21 7.18994L155.43 65.7699H8.98999Z" fill="#A0D6DC"/>
<path d="M164.42 180H0V65.77H164.42V180Z" fill="#A0D6DC"/>
<path opacity="0.2" d="M148.24 52.82L148 59.84L147.76 65.78L144.49 151.97H19.91L16.64 65.78L16.4 59.84L16.16 52.86L23.77 46.76H140.66L148.24 52.82Z" fill="black"/>
<path d="M144.5 151.96H19.92V50.73H144.5V151.96Z" fill="#F7F7F7"/>
<path opacity="0.2" d="M0 180L82.21 119.36L0 65.77V180Z" fill="black"/>
<path opacity="0.2" d="M164.42 180L82.21 119.36L164.42 65.77V180Z" fill="black"/>
<path d="M0 180L82.21 122.88L0 65.77V180Z" fill="#80C7CF"/>
<path d="M164.42 180L82.21 122.88L164.42 65.77V180Z" fill="#80C7CF"/>
<path opacity="0.2" d="M0 180L82.21 112.92L164.42 180H0Z" fill="black"/>
<path d="M0 180L82.21 114.23L164.42 180H0Z" fill="#A0D6DC"/>
<path fill-rule="evenodd" clip-rule="evenodd" d="M84.92 58.11C96.98 58.11 104.69 66.31 104.69 77.99C104.69 88.21 97.82 93.34 91.95 93.34C88.77 93.34 86.15 91.78 85.53 89.1H85.42C83.86 91.28 81.01 92.79 78.72 92.79C74.31 92.79 71.35 89.55 71.35 84.41C71.35 77.6 76.21 70.73 82.63 70.73C84.47 70.73 85.92 71.51 86.87 73.52H86.98L87.77 71.17H92.85L90.28 83.46C89.5 86.7 90.34 88.26 92.85 88.26C96.2 88.26 99.49 84.35 99.49 78.21C99.49 70.22 95.19 63.08 84.25 63.08C74.7 63.08 65.26 71.23 65.26 83.79C65.26 94.8 72.85 100.1 81.57 100.1C84.47 100.1 87.71 99.15 90.05 97.92L91.84 102.39C88.44 104.23 84.86 105.07 80.9 105.07C69.73 105.07 59.73 98.26 59.73 84.02C59.73 68.38 71.18 58.11 84.92 58.11ZM80.45 87.65C81.62 87.65 82.74 86.98 84.14 85.14L85.48 77.6C84.92 76.54 84.02 75.98 82.91 75.98C79.56 75.98 77.55 80.55 77.55 83.91C77.55 86.42 78.61 87.65 80.45 87.65Z" fill="#F55F13"/>
</svg>
