<svg width="213" height="213" viewBox="0 0 213 213" fill="none" xmlns="http://www.w3.org/2000/svg">
<circle cx="106.5" cy="106.5" r="106.5" fill="white"/>
<path d="M22.4999 101C44.2438 56 82 45.5 125.5 99C124.619 62.5115 110.586 39.9237 75.3313 31.308C67.313 29.3485 58.8096 28.9886 50.9559 31.5288C22.6849 40.6729 15.8645 69.5921 22.4999 101Z" fill="#F8C301" stroke="#F8C301"/>
<path d="M160 122L99 177C102.172 154.495 100.537 142.504 123.69 113.855C127.151 109.574 131.07 105.644 135.506 102.383C152.442 89.9284 167.092 86.486 195 86.5C192.956 109.371 192.241 123.714 180.857 144.444C176.347 152.657 169.998 159.749 162.433 165.278C143.129 179.385 128.934 182.638 106 183.5L160 122Z" fill="#89C82F" stroke="#89C82F"/>
<path d="M48 138L92.5 179C91.5701 160.162 88.2029 148.284 77.0311 133.978C70.2421 125.285 61.1583 118.489 50.7904 114.724C40.7863 111.091 31.8891 109.844 19 109.5C20.5277 131.798 22.5688 143.986 36.5 163C50.3793 177.323 63.0313 180.099 87.5 183L48 138Z" fill="#0061A0" stroke="#0160A0"/>
</svg>
