<svg width="400" height="200" viewBox="0 0 400 200" fill="none" xmlns="http://www.w3.org/2000/svg">
<rect width="400" height="100" fill="white"/>
<path d="M92.9221 9.72166L92.2116 9.02041L85.664 14.924C86.307 9.74101 91.0772 5.59334 96.3185 5.50384C95.6406 10.7724 92.0388 15.5212 87.0828 16.3719L92.9221 9.72166Z" fill="#86C831" stroke="#89C834"/>
<path d="M92.9221 43.7217L92.2116 43.0204L85.664 48.924C86.307 43.741 91.0772 39.5933 96.3185 39.5038C95.6406 44.7724 92.0388 49.5212 87.0828 50.3719L92.9221 43.7217Z" fill="#86C831" stroke="#89C834"/>
<path d="M98.0735 24.2853L97.3589 24.9829L102.937 31.3378C101.578 31.1498 100.493 30.9368 99.5405 30.5959C98.3291 30.1624 97.3159 29.5157 96.2401 28.4113C95.1409 26.9065 94.5248 25.6912 94.1484 24.4258C93.8071 23.2783 93.6563 22.0699 93.5392 20.5266C98.4913 20.8743 103.296 24.0938 104.219 28.8222C104.299 29.2321 104.361 29.6626 104.408 30.1219L98.0735 24.2853Z" fill="#86C831" stroke="#89C834"/>
<path d="M103.078 51.7217L103.788 51.0204L110.336 56.924C109.693 51.741 104.923 47.5933 99.6815 47.5038C100.359 52.7724 103.961 57.5212 108.917 58.3719L103.078 51.7217Z" fill="#86C831" stroke="#89C834"/>
<path d="M90.9541 87.7217L91.6647 87.0204L98.2122 92.924C97.5692 87.741 92.799 83.5933 87.5577 83.5038C88.2357 88.7724 91.8374 93.5212 96.7934 94.3719L90.9541 87.7217Z" fill="#86C831" stroke="#89C834"/>
<path d="M97.9265 66.2853L98.6411 66.9829L93.0629 73.3378C94.4219 73.1498 95.5068 72.9368 96.4595 72.5959C97.6709 72.1624 98.6841 71.5157 99.7599 70.4113C100.859 68.9065 101.475 67.6912 101.852 66.4258C102.193 65.2783 102.344 64.0699 102.461 62.5266C97.5087 62.8743 92.7041 66.0938 91.7809 70.8222C91.7009 71.2321 91.6391 71.6626 91.5917 72.1219L97.9265 66.2853Z" fill="#86C831" stroke="#89C834"/>
<path d="M134.922 8.72166L134.212 8.02041L127.664 13.924C128.307 8.74101 133.077 4.59334 138.318 4.50384C137.641 9.77243 134.039 14.5212 129.083 15.3719L134.922 8.72166Z" fill="#86C831" stroke="#89C834"/>
<path d="M134.922 42.7217L134.212 42.0204L127.664 47.924C128.307 42.741 133.077 38.5933 138.318 38.5038C137.641 43.7724 134.039 48.5212 129.083 49.3719L134.922 42.7217Z" fill="#86C831" stroke="#89C834"/>
<path d="M140.073 23.2853L139.359 23.9829L144.937 30.3378C143.578 30.1498 142.493 29.9368 141.541 29.5959C140.329 29.1624 139.316 28.5157 138.24 27.4113C137.141 25.9065 136.525 24.6912 136.148 23.4258C135.807 22.2783 135.656 21.0699 135.539 19.5266C140.491 19.8743 145.296 23.0938 146.219 27.8222C146.299 28.2321 146.361 28.6626 146.408 29.1219L140.073 23.2853Z" fill="#86C831" stroke="#89C834"/>
<path d="M145.078 50.7217L145.788 50.0204L152.336 55.924C151.693 50.741 146.923 46.5933 141.682 46.5038C142.359 51.7724 145.961 56.5212 150.917 57.3719L145.078 50.7217Z" fill="#86C831" stroke="#89C834"/>
<path d="M132.954 86.7217L133.665 86.0204L140.212 91.924C139.569 86.741 134.799 82.5933 129.558 82.5038C130.236 87.7724 133.837 92.5212 138.793 93.3719L132.954 86.7217Z" fill="#86C831" stroke="#89C834"/>
<path d="M139.927 65.2853L140.641 65.9829L135.063 72.3378C136.422 72.1498 137.507 71.9368 138.459 71.5959C139.671 71.1624 140.684 70.5157 141.76 69.4113C142.859 67.9065 143.475 66.6912 143.852 65.4258C144.193 64.2783 144.344 63.0699 144.461 61.5266C139.509 61.8743 134.704 65.0938 133.781 69.8222C133.701 70.2321 133.639 70.6626 133.592 71.1219L139.927 65.2853Z" fill="#86C831" stroke="#89C834"/>
<path d="M173.922 9.72166L173.212 9.02041L166.664 14.924C167.307 9.74101 172.077 5.59334 177.318 5.50384C176.641 10.7724 173.039 15.5212 168.083 16.3719L173.922 9.72166Z" fill="#86C831" stroke="#89C834"/>
<path d="M173.922 43.7217L173.212 43.0204L166.664 48.924C167.307 43.741 172.077 39.5933 177.318 39.5038C176.641 44.7724 173.039 49.5212 168.083 50.3719L173.922 43.7217Z" fill="#86C831" stroke="#89C834"/>
<path d="M179.073 24.2853L178.359 24.9829L183.937 31.3378C182.578 31.1498 181.493 30.9368 180.541 30.5959C179.329 30.1624 178.316 29.5157 177.24 28.4113C176.141 26.9065 175.525 25.6912 175.148 24.4258C174.807 23.2783 174.656 22.0699 174.539 20.5266C179.491 20.8743 184.296 24.0938 185.219 28.8222C185.299 29.2321 185.361 29.6626 185.408 30.1219L179.073 24.2853Z" fill="#86C831" stroke="#89C834"/>
<path d="M184.078 51.7217L184.788 51.0204L191.336 56.924C190.693 51.741 185.923 47.5933 180.682 47.5038C181.359 52.7724 184.961 57.5212 189.917 58.3719L184.078 51.7217Z" fill="#86C831" stroke="#89C834"/>
<path d="M171.954 87.7217L172.665 87.0204L179.212 92.924C178.569 87.741 173.799 83.5933 168.558 83.5038C169.236 88.7724 172.837 93.5212 177.793 94.3719L171.954 87.7217Z" fill="#86C831" stroke="#89C834"/>
<path d="M178.927 66.2853L179.641 66.9829L174.063 73.3378C175.422 73.1498 176.507 72.9368 177.459 72.5959C178.671 72.1624 179.684 71.5157 180.76 70.4113C181.859 68.9065 182.475 67.6912 182.852 66.4258C183.193 65.2783 183.344 64.0699 183.461 62.5266C178.509 62.8743 173.704 66.0938 172.781 70.8222C172.701 71.2321 172.639 71.6626 172.592 72.1219L178.927 66.2853Z" fill="#86C831" stroke="#89C834"/>
<path d="M215.922 8.72166L215.212 8.02041L208.664 13.924C209.307 8.74101 214.077 4.59334 219.318 4.50384C218.641 9.77243 215.039 14.5212 210.083 15.3719L215.922 8.72166Z" fill="#86C831" stroke="#89C834"/>
<path d="M215.922 42.7217L215.212 42.0204L208.664 47.924C209.307 42.741 214.077 38.5933 219.318 38.5038C218.641 43.7724 215.039 48.5212 210.083 49.3719L215.922 42.7217Z" fill="#86C831" stroke="#89C834"/>
<path d="M221.073 23.2853L220.359 23.9829L225.937 30.3378C224.578 30.1498 223.493 29.9368 222.541 29.5959C221.329 29.1624 220.316 28.5157 219.24 27.4113C218.141 25.9065 217.525 24.6912 217.148 23.4258C216.807 22.2783 216.656 21.0699 216.539 19.5266C221.491 19.8743 226.296 23.0938 227.219 27.8222C227.299 28.2321 227.361 28.6626 227.408 29.1219L221.073 23.2853Z" fill="#86C831" stroke="#89C834"/>
<path d="M226.078 50.7217L226.788 50.0204L233.336 55.924C232.693 50.741 227.923 46.5933 222.682 46.5038C223.359 51.7724 226.961 56.5212 231.917 57.3719L226.078 50.7217Z" fill="#86C831" stroke="#89C834"/>
<path d="M213.954 86.7217L214.665 86.0204L221.212 91.924C220.569 86.741 215.799 82.5933 210.558 82.5038C211.236 87.7724 214.837 92.5212 219.793 93.3719L213.954 86.7217Z" fill="#86C831" stroke="#89C834"/>
<path d="M220.927 65.2853L221.641 65.9829L216.063 72.3378C217.422 72.1498 218.507 71.9368 219.459 71.5959C220.671 71.1624 221.684 70.5157 222.76 69.4113C223.859 67.9065 224.475 66.6912 224.852 65.4258C225.193 64.2783 225.344 63.0699 225.461 61.5266C220.509 61.8743 215.704 65.0938 214.781 69.8222C214.701 70.2321 214.639 70.6626 214.592 71.1219L220.927 65.2853Z" fill="#86C831" stroke="#89C834"/>
<path d="M254.922 9.72166L254.212 9.02041L247.664 14.924C248.307 9.74101 253.077 5.59334 258.318 5.50384C257.641 10.7724 254.039 15.5212 249.083 16.3719L254.922 9.72166Z" fill="#86C831" stroke="#89C834"/>
<path d="M254.922 43.7217L254.212 43.0204L247.664 48.924C248.307 43.741 253.077 39.5933 258.318 39.5038C257.641 44.7724 254.039 49.5212 249.083 50.3719L254.922 43.7217Z" fill="#86C831" stroke="#89C834"/>
<path d="M260.073 24.2853L259.359 24.9829L264.937 31.3378C263.578 31.1498 262.493 30.9368 261.541 30.5959C260.329 30.1624 259.316 29.5157 258.24 28.4113C257.141 26.9065 256.525 25.6912 256.148 24.4258C255.807 23.2783 255.656 22.0699 255.539 20.5266C260.491 20.8743 265.296 24.0938 266.219 28.8222C266.299 29.2321 266.361 29.6626 266.408 30.1219L260.073 24.2853Z" fill="#86C831" stroke="#89C834"/>
<path d="M265.078 51.7217L265.788 51.0204L272.336 56.924C271.693 51.741 266.923 47.5933 261.682 47.5038C262.359 52.7724 265.961 57.5212 270.917 58.3719L265.078 51.7217Z" fill="#86C831" stroke="#89C834"/>
<path d="M252.954 87.7217L253.665 87.0204L260.212 92.924C259.569 87.741 254.799 83.5933 249.558 83.5038C250.236 88.7724 253.837 93.5212 258.793 94.3719L252.954 87.7217Z" fill="#86C831" stroke="#89C834"/>
<path d="M259.927 66.2853L260.641 66.9829L255.063 73.3378C256.422 73.1498 257.507 72.9368 258.459 72.5959C259.671 72.1624 260.684 71.5157 261.76 70.4113C262.859 68.9065 263.475 67.6912 263.852 66.4258C264.193 65.2783 264.344 64.0699 264.461 62.5266C259.509 62.8743 254.704 66.0938 253.781 70.8222C253.701 71.2321 253.639 71.6626 253.592 72.1219L259.927 66.2853Z" fill="#86C831" stroke="#89C834"/>
<path d="M296.922 8.72166L296.212 8.02041L289.664 13.924C290.307 8.74101 295.077 4.59334 300.318 4.50384C299.641 9.77243 296.039 14.5212 291.083 15.3719L296.922 8.72166Z" fill="#86C831" stroke="#89C834"/>
<path d="M296.922 42.7217L296.212 42.0204L289.664 47.924C290.307 42.741 295.077 38.5933 300.318 38.5038C299.641 43.7724 296.039 48.5212 291.083 49.3719L296.922 42.7217Z" fill="#86C831" stroke="#89C834"/>
<path d="M302.073 23.2853L301.359 23.9829L306.937 30.3378C305.578 30.1498 304.493 29.9368 303.541 29.5959C302.329 29.1624 301.316 28.5157 300.24 27.4113C299.141 25.9065 298.525 24.6912 298.148 23.4258C297.807 22.2783 297.656 21.0699 297.539 19.5266C302.491 19.8743 307.296 23.0938 308.219 27.8222C308.299 28.2321 308.361 28.6626 308.408 29.1219L302.073 23.2853Z" fill="#86C831" stroke="#89C834"/>
<path d="M307.078 50.7217L307.788 50.0204L314.336 55.924C313.693 50.741 308.923 46.5933 303.682 46.5038C304.359 51.7724 307.961 56.5212 312.917 57.3719L307.078 50.7217Z" fill="#86C831" stroke="#89C834"/>
<path d="M294.954 86.7217L295.665 86.0204L302.212 91.924C301.569 86.741 296.799 82.5933 291.558 82.5038C292.236 87.7724 295.837 92.5212 300.793 93.3719L294.954 86.7217Z" fill="#86C831" stroke="#89C834"/>
<path d="M301.927 65.2853L302.641 65.9829L297.063 72.3378C298.422 72.1498 299.507 71.9368 300.459 71.5959C301.671 71.1624 302.684 70.5157 303.76 69.4113C304.859 67.9065 305.475 66.6912 305.852 65.4258C306.193 64.2783 306.344 63.0699 306.461 61.5266C301.509 61.8743 296.704 65.0938 295.781 69.8222C295.701 70.2321 295.639 70.6626 295.592 71.1219L301.927 65.2853Z" fill="#86C831" stroke="#89C834"/>
<path d="M335.922 9.72166L335.212 9.02041L328.664 14.924C329.307 9.74101 334.077 5.59334 339.318 5.50384C338.641 10.7724 335.039 15.5212 330.083 16.3719L335.922 9.72166Z" fill="#86C831" stroke="#89C834"/>
<path d="M335.922 43.7217L335.212 43.0204L328.664 48.924C329.307 43.741 334.077 39.5933 339.318 39.5038C338.641 44.7724 335.039 49.5212 330.083 50.3719L335.922 43.7217Z" fill="#86C831" stroke="#89C834"/>
<path d="M341.073 24.2853L340.359 24.9829L345.937 31.3378C344.578 31.1498 343.493 30.9368 342.541 30.5959C341.329 30.1624 340.316 29.5157 339.24 28.4113C338.141 26.9065 337.525 25.6912 337.148 24.4258C336.807 23.2783 336.656 22.0699 336.539 20.5266C341.491 20.8743 346.296 24.0938 347.219 28.8222C347.299 29.2321 347.361 29.6626 347.408 30.1219L341.073 24.2853Z" fill="#86C831" stroke="#89C834"/>
<path d="M346.078 51.7217L346.788 51.0204L353.336 56.924C352.693 51.741 347.923 47.5933 342.682 47.5038C343.359 52.7724 346.961 57.5212 351.917 58.3719L346.078 51.7217Z" fill="#86C831" stroke="#89C834"/>
<path d="M333.954 87.7217L334.665 87.0204L341.212 92.924C340.569 87.741 335.799 83.5933 330.558 83.5038C331.236 88.7724 334.837 93.5212 339.793 94.3719L333.954 87.7217Z" fill="#86C831" stroke="#89C834"/>
<path d="M340.927 66.2853L341.641 66.9829L336.063 73.3378C337.422 73.1498 338.507 72.9368 339.459 72.5959C340.671 72.1624 341.684 71.5157 342.76 70.4113C343.859 68.9065 344.475 67.6912 344.852 66.4258C345.193 65.2783 345.344 64.0699 345.461 62.5266C340.509 62.8743 335.704 66.0938 334.781 70.8222C334.701 71.2321 334.639 71.6626 334.592 72.1219L340.927 66.2853Z" fill="#86C831" stroke="#89C834"/>
<path d="M377.922 8.72166L377.212 8.02041L370.664 13.924C371.307 8.74101 376.077 4.59334 381.318 4.50384C380.641 9.77243 377.039 14.5212 372.083 15.3719L377.922 8.72166Z" fill="#86C831" stroke="#89C834"/>
<path d="M377.922 42.7217L377.212 42.0204L370.664 47.924C371.307 42.741 376.077 38.5933 381.318 38.5038C380.641 43.7724 377.039 48.5212 372.083 49.3719L377.922 42.7217Z" fill="#86C831" stroke="#89C834"/>
<path d="M383.073 23.2853L382.359 23.9829L387.937 30.3378C386.578 30.1498 385.493 29.9368 384.541 29.5959C383.329 29.1624 382.316 28.5157 381.24 27.4113C380.141 25.9065 379.525 24.6912 379.148 23.4258C378.807 22.2783 378.656 21.0699 378.539 19.5266C383.491 19.8743 388.296 23.0938 389.219 27.8222C389.299 28.2321 389.361 28.6626 389.408 29.1219L383.073 23.2853Z" fill="#86C831" stroke="#89C834"/>
<path d="M388.078 50.7217L388.788 50.0204L395.336 55.924C394.693 50.741 389.923 46.5933 384.682 46.5038C385.359 51.7724 388.961 56.5212 393.917 57.3719L388.078 50.7217Z" fill="#86C831" stroke="#89C834"/>
<path d="M375.954 86.7217L376.665 86.0204L383.212 91.924C382.569 86.741 377.799 82.5933 372.558 82.5038C373.236 87.7724 376.837 92.5212 381.793 93.3719L375.954 86.7217Z" fill="#86C831" stroke="#89C834"/>
<path d="M382.927 65.2853L383.641 65.9829L378.063 72.3378C379.422 72.1498 380.507 71.9368 381.459 71.5959C382.671 71.1624 383.684 70.5157 384.76 69.4113C385.859 67.9065 386.475 66.6912 386.852 65.4258C387.193 64.2783 387.344 63.0699 387.461 61.5266C382.509 61.8743 377.704 65.0938 376.781 69.8222C376.701 70.2321 376.639 70.6626 376.592 71.1219L382.927 65.2853Z" fill="#86C831" stroke="#89C834"/>
<path d="M11.9221 9.72166L11.2116 9.02041L4.66399 14.924C5.30704 9.74101 10.0772 5.59334 15.3185 5.50384C14.6406 10.7724 11.0388 15.5212 6.08283 16.3719L11.9221 9.72166Z" fill="#86C831" stroke="#89C834"/>
<path d="M11.9221 43.7217L11.2116 43.0204L4.66399 48.924C5.30704 43.741 10.0772 39.5933 15.3185 39.5038C14.6406 44.7724 11.0388 49.5212 6.08283 50.3719L11.9221 43.7217Z" fill="#86C831" stroke="#89C834"/>
<path d="M17.0735 24.2853L16.3589 24.9829L21.9371 31.3378C20.5781 31.1498 19.4932 30.9368 18.5405 30.5959C17.3291 30.1624 16.3159 29.5157 15.2401 28.4113C14.1409 26.9065 13.5248 25.6912 13.1484 24.4258C12.8071 23.2783 12.6563 22.0699 12.5392 20.5266C17.4913 20.8743 22.2959 24.0938 23.2191 28.8222C23.2991 29.2321 23.3609 29.6626 23.4083 30.1219L17.0735 24.2853Z" fill="#86C831" stroke="#89C834"/>
<path d="M22.0779 51.7217L22.7884 51.0204L29.336 56.924C28.693 51.741 23.9228 47.5933 18.6815 47.5038C19.3594 52.7724 22.9612 57.5212 27.9172 58.3719L22.0779 51.7217Z" fill="#86C831" stroke="#89C834"/>
<path d="M9.95411 87.7217L10.6647 87.0204L17.2122 92.924C16.5692 87.741 11.799 83.5933 6.55774 83.5038C7.23567 88.7724 10.8374 93.5212 15.7934 94.3719L9.95411 87.7217Z" fill="#86C831" stroke="#89C834"/>
<path d="M16.9265 66.2853L17.6411 66.9829L12.0629 73.3378C13.4219 73.1498 14.5068 72.9368 15.4595 72.5959C16.6709 72.1624 17.6841 71.5157 18.7599 70.4113C19.8591 68.9065 20.4752 67.6912 20.8516 66.4258C21.1929 65.2783 21.3437 64.0699 21.4608 62.5266C16.5087 62.8743 11.7041 66.0938 10.7809 70.8222C10.7009 71.2321 10.6391 71.6626 10.5917 72.1219L16.9265 66.2853Z" fill="#86C831" stroke="#89C834"/>
<path d="M53.9221 8.72166L53.2116 8.02041L46.664 13.924C47.307 8.74101 52.0772 4.59334 57.3185 4.50384C56.6406 9.77243 53.0388 14.5212 48.0828 15.3719L53.9221 8.72166Z" fill="#86C831" stroke="#89C834"/>
<path d="M53.9221 42.7217L53.2116 42.0204L46.664 47.924C47.307 42.741 52.0772 38.5933 57.3185 38.5038C56.6406 43.7724 53.0388 48.5212 48.0828 49.3719L53.9221 42.7217Z" fill="#86C831" stroke="#89C834"/>
<path d="M59.0735 23.2853L58.3589 23.9829L63.9371 30.3378C62.5781 30.1498 61.4932 29.9368 60.5405 29.5959C59.3291 29.1624 58.3159 28.5157 57.2401 27.4113C56.1409 25.9065 55.5248 24.6912 55.1484 23.4258C54.8071 22.2783 54.6563 21.0699 54.5392 19.5266C59.4913 19.8743 64.2959 23.0938 65.2191 27.8222C65.2991 28.2321 65.3609 28.6626 65.4083 29.1219L59.0735 23.2853Z" fill="#86C831" stroke="#89C834"/>
<path d="M64.0779 50.7217L64.7884 50.0204L71.336 55.924C70.693 50.741 65.9228 46.5933 60.6815 46.5038C61.3594 51.7724 64.9612 56.5212 69.9172 57.3719L64.0779 50.7217Z" fill="#86C831" stroke="#89C834"/>
<path d="M51.9541 86.7217L52.6647 86.0204L59.2122 91.924C58.5692 86.741 53.799 82.5933 48.5577 82.5038C49.2357 87.7724 52.8374 92.5212 57.7934 93.3719L51.9541 86.7217Z" fill="#86C831" stroke="#89C834"/>
<path d="M58.9265 65.2853L59.6411 65.9829L54.0629 72.3378C55.4219 72.1498 56.5068 71.9368 57.4595 71.5959C58.6709 71.1624 59.6841 70.5157 60.7599 69.4113C61.8591 67.9065 62.4752 66.6912 62.8516 65.4258C63.1929 64.2783 63.3437 63.0699 63.4608 61.5266C58.5087 61.8743 53.7041 65.0938 52.7809 69.8222C52.7009 70.2321 52.6391 70.6626 52.5917 71.1219L58.9265 65.2853Z" fill="#86C831" stroke="#89C834"/>
<rect width="400" height="100" transform="translate(0 100)" fill="white"/>
<path d="M92.2116 109.02L85.664 114.924C86.307 109.741 91.0772 105.593 96.3185 105.504C95.6406 110.772 92.0388 115.521 87.0828 116.372L92.9221 109.722L92.2116 109.02Z" fill="#86C831" stroke="#89C834"/>
<path d="M92.2116 143.02L85.664 148.924C86.307 143.741 91.0772 139.593 96.3185 139.504C95.6406 144.772 92.0388 149.521 87.0828 150.372L92.9221 143.722L92.2116 143.02Z" fill="#86C831" stroke="#89C834"/>
<path d="M97.3589 124.983L102.937 131.338C101.578 131.15 100.493 130.937 99.5405 130.596C98.3291 130.162 97.3159 129.516 96.2401 128.411C95.1409 126.906 94.5248 125.691 94.1484 124.426C93.8071 123.278 93.6563 122.07 93.5392 120.527C98.4913 120.874 103.296 124.094 104.219 128.822C104.299 129.232 104.361 129.663 104.408 130.122L98.0735 124.285L97.3589 124.983Z" fill="#86C831" stroke="#89C834"/>
<path d="M103.788 151.02L110.336 156.924C109.693 151.741 104.923 147.593 99.6815 147.504C100.359 152.772 103.961 157.521 108.917 158.372L103.078 151.722L103.788 151.02Z" fill="#86C831" stroke="#89C834"/>
<path d="M91.6647 187.02L98.2122 192.924C97.5692 187.741 92.799 183.593 87.5577 183.504C88.2357 188.772 91.8374 193.521 96.7934 194.372L90.9541 187.722L91.6647 187.02Z" fill="#86C831" stroke="#89C834"/>
<path d="M98.6411 166.983L93.0629 173.338C94.4219 173.15 95.5068 172.937 96.4595 172.596C97.6709 172.162 98.6841 171.516 99.7599 170.411C100.859 168.906 101.475 167.691 101.852 166.426C102.193 165.278 102.344 164.07 102.461 162.527C97.5087 162.874 92.7041 166.094 91.7809 170.822C91.7009 171.232 91.6391 171.663 91.5917 172.122L97.9265 166.285L98.6411 166.983Z" fill="#86C831" stroke="#89C834"/>
<path d="M134.212 108.02L127.664 113.924C128.307 108.741 133.077 104.593 138.318 104.504C137.641 109.772 134.039 114.521 129.083 115.372L134.922 108.722L134.212 108.02Z" fill="#86C831" stroke="#89C834"/>
<path d="M134.212 142.02L127.664 147.924C128.307 142.741 133.077 138.593 138.318 138.504C137.641 143.772 134.039 148.521 129.083 149.372L134.922 142.722L134.212 142.02Z" fill="#86C831" stroke="#89C834"/>
<path d="M139.359 123.983L144.937 130.338C143.578 130.15 142.493 129.937 141.541 129.596C140.329 129.162 139.316 128.516 138.24 127.411C137.141 125.906 136.525 124.691 136.148 123.426C135.807 122.278 135.656 121.07 135.539 119.527C140.491 119.874 145.296 123.094 146.219 127.822C146.299 128.232 146.361 128.663 146.408 129.122L140.073 123.285L139.359 123.983Z" fill="#86C831" stroke="#89C834"/>
<path d="M145.788 150.02L152.336 155.924C151.693 150.741 146.923 146.593 141.682 146.504C142.359 151.772 145.961 156.521 150.917 157.372L145.078 150.722L145.788 150.02Z" fill="#86C831" stroke="#89C834"/>
<path d="M133.665 186.02L140.212 191.924C139.569 186.741 134.799 182.593 129.558 182.504C130.236 187.772 133.837 192.521 138.793 193.372L132.954 186.722L133.665 186.02Z" fill="#86C831" stroke="#89C834"/>
<path d="M140.641 165.983L135.063 172.338C136.422 172.15 137.507 171.937 138.459 171.596C139.671 171.162 140.684 170.516 141.76 169.411C142.859 167.906 143.475 166.691 143.852 165.426C144.193 164.278 144.344 163.07 144.461 161.527C139.509 161.874 134.704 165.094 133.781 169.822C133.701 170.232 133.639 170.663 133.592 171.122L139.927 165.285L140.641 165.983Z" fill="#86C831" stroke="#89C834"/>
<path d="M173.212 109.02L166.664 114.924C167.307 109.741 172.077 105.593 177.318 105.504C176.641 110.772 173.039 115.521 168.083 116.372L173.922 109.722L173.212 109.02Z" fill="#86C831" stroke="#89C834"/>
<path d="M173.212 143.02L166.664 148.924C167.307 143.741 172.077 139.593 177.318 139.504C176.641 144.772 173.039 149.521 168.083 150.372L173.922 143.722L173.212 143.02Z" fill="#86C831" stroke="#89C834"/>
<path d="M178.359 124.983L183.937 131.338C182.578 131.15 181.493 130.937 180.541 130.596C179.329 130.162 178.316 129.516 177.24 128.411C176.141 126.906 175.525 125.691 175.148 124.426C174.807 123.278 174.656 122.07 174.539 120.527C179.491 120.874 184.296 124.094 185.219 128.822C185.299 129.232 185.361 129.663 185.408 130.122L179.073 124.285L178.359 124.983Z" fill="#86C831" stroke="#89C834"/>
<path d="M184.788 151.02L191.336 156.924C190.693 151.741 185.923 147.593 180.682 147.504C181.359 152.772 184.961 157.521 189.917 158.372L184.078 151.722L184.788 151.02Z" fill="#86C831" stroke="#89C834"/>
<path d="M172.665 187.02L179.212 192.924C178.569 187.741 173.799 183.593 168.558 183.504C169.236 188.772 172.837 193.521 177.793 194.372L171.954 187.722L172.665 187.02Z" fill="#86C831" stroke="#89C834"/>
<path d="M179.641 166.983L174.063 173.338C175.422 173.15 176.507 172.937 177.459 172.596C178.671 172.162 179.684 171.516 180.76 170.411C181.859 168.906 182.475 167.691 182.852 166.426C183.193 165.278 183.344 164.07 183.461 162.527C178.509 162.874 173.704 166.094 172.781 170.822C172.701 171.232 172.639 171.663 172.592 172.122L178.927 166.285L179.641 166.983Z" fill="#86C831" stroke="#89C834"/>
<path d="M215.212 108.02L208.664 113.924C209.307 108.741 214.077 104.593 219.318 104.504C218.641 109.772 215.039 114.521 210.083 115.372L215.922 108.722L215.212 108.02Z" fill="#86C831" stroke="#89C834"/>
<path d="M215.212 142.02L208.664 147.924C209.307 142.741 214.077 138.593 219.318 138.504C218.641 143.772 215.039 148.521 210.083 149.372L215.922 142.722L215.212 142.02Z" fill="#86C831" stroke="#89C834"/>
<path d="M220.359 123.983L225.937 130.338C224.578 130.15 223.493 129.937 222.541 129.596C221.329 129.162 220.316 128.516 219.24 127.411C218.141 125.906 217.525 124.691 217.148 123.426C216.807 122.278 216.656 121.07 216.539 119.527C221.491 119.874 226.296 123.094 227.219 127.822C227.299 128.232 227.361 128.663 227.408 129.122L221.073 123.285L220.359 123.983Z" fill="#86C831" stroke="#89C834"/>
<path d="M226.788 150.02L233.336 155.924C232.693 150.741 227.923 146.593 222.682 146.504C223.359 151.772 226.961 156.521 231.917 157.372L226.078 150.722L226.788 150.02Z" fill="#86C831" stroke="#89C834"/>
<path d="M214.665 186.02L221.212 191.924C220.569 186.741 215.799 182.593 210.558 182.504C211.236 187.772 214.837 192.521 219.793 193.372L213.954 186.722L214.665 186.02Z" fill="#86C831" stroke="#89C834"/>
<path d="M221.641 165.983L216.063 172.338C217.422 172.15 218.507 171.937 219.459 171.596C220.671 171.162 221.684 170.516 222.76 169.411C223.859 167.906 224.475 166.691 224.852 165.426C225.193 164.278 225.344 163.07 225.461 161.527C220.509 161.874 215.704 165.094 214.781 169.822C214.701 170.232 214.639 170.663 214.592 171.122L220.927 165.285L221.641 165.983Z" fill="#86C831" stroke="#89C834"/>
<path d="M254.212 109.02L247.664 114.924C248.307 109.741 253.077 105.593 258.318 105.504C257.641 110.772 254.039 115.521 249.083 116.372L254.922 109.722L254.212 109.02Z" fill="#86C831" stroke="#89C834"/>
<path d="M254.212 143.02L247.664 148.924C248.307 143.741 253.077 139.593 258.318 139.504C257.641 144.772 254.039 149.521 249.083 150.372L254.922 143.722L254.212 143.02Z" fill="#86C831" stroke="#89C834"/>
<path d="M259.359 124.983L264.937 131.338C263.578 131.15 262.493 130.937 261.541 130.596C260.329 130.162 259.316 129.516 258.24 128.411C257.141 126.906 256.525 125.691 256.148 124.426C255.807 123.278 255.656 122.07 255.539 120.527C260.491 120.874 265.296 124.094 266.219 128.822C266.299 129.232 266.361 129.663 266.408 130.122L260.073 124.285L259.359 124.983Z" fill="#86C831" stroke="#89C834"/>
<path d="M265.788 151.02L272.336 156.924C271.693 151.741 266.923 147.593 261.682 147.504C262.359 152.772 265.961 157.521 270.917 158.372L265.078 151.722L265.788 151.02Z" fill="#86C831" stroke="#89C834"/>
<path d="M253.665 187.02L260.212 192.924C259.569 187.741 254.799 183.593 249.558 183.504C250.236 188.772 253.837 193.521 258.793 194.372L252.954 187.722L253.665 187.02Z" fill="#86C831" stroke="#89C834"/>
<path d="M260.641 166.983L255.063 173.338C256.422 173.15 257.507 172.937 258.459 172.596C259.671 172.162 260.684 171.516 261.76 170.411C262.859 168.906 263.475 167.691 263.852 166.426C264.193 165.278 264.344 164.07 264.461 162.527C259.509 162.874 254.704 166.094 253.781 170.822C253.701 171.232 253.639 171.663 253.592 172.122L259.927 166.285L260.641 166.983Z" fill="#86C831" stroke="#89C834"/>
<path d="M296.212 108.02L289.664 113.924C290.307 108.741 295.077 104.593 300.318 104.504C299.641 109.772 296.039 114.521 291.083 115.372L296.922 108.722L296.212 108.02Z" fill="#86C831" stroke="#89C834"/>
<path d="M296.212 142.02L289.664 147.924C290.307 142.741 295.077 138.593 300.318 138.504C299.641 143.772 296.039 148.521 291.083 149.372L296.922 142.722L296.212 142.02Z" fill="#86C831" stroke="#89C834"/>
<path d="M301.359 123.983L306.937 130.338C305.578 130.15 304.493 129.937 303.541 129.596C302.329 129.162 301.316 128.516 300.24 127.411C299.141 125.906 298.525 124.691 298.148 123.426C297.807 122.278 297.656 121.07 297.539 119.527C302.491 119.874 307.296 123.094 308.219 127.822C308.299 128.232 308.361 128.663 308.408 129.122L302.073 123.285L301.359 123.983Z" fill="#86C831" stroke="#89C834"/>
<path d="M307.788 150.02L314.336 155.924C313.693 150.741 308.923 146.593 303.682 146.504C304.359 151.772 307.961 156.521 312.917 157.372L307.078 150.722L307.788 150.02Z" fill="#86C831" stroke="#89C834"/>
<path d="M295.665 186.02L302.212 191.924C301.569 186.741 296.799 182.593 291.558 182.504C292.236 187.772 295.837 192.521 300.793 193.372L294.954 186.722L295.665 186.02Z" fill="#86C831" stroke="#89C834"/>
<path d="M302.641 165.983L297.063 172.338C298.422 172.15 299.507 171.937 300.459 171.596C301.671 171.162 302.684 170.516 303.76 169.411C304.859 167.906 305.475 166.691 305.852 165.426C306.193 164.278 306.344 163.07 306.461 161.527C301.509 161.874 296.704 165.094 295.781 169.822C295.701 170.232 295.639 170.663 295.592 171.122L301.927 165.285L302.641 165.983Z" fill="#86C831" stroke="#89C834"/>
<path d="M335.212 109.02L328.664 114.924C329.307 109.741 334.077 105.593 339.318 105.504C338.641 110.772 335.039 115.521 330.083 116.372L335.922 109.722L335.212 109.02Z" fill="#86C831" stroke="#89C834"/>
<path d="M335.212 143.02L328.664 148.924C329.307 143.741 334.077 139.593 339.318 139.504C338.641 144.772 335.039 149.521 330.083 150.372L335.922 143.722L335.212 143.02Z" fill="#86C831" stroke="#89C834"/>
<path d="M340.359 124.983L345.937 131.338C344.578 131.15 343.493 130.937 342.541 130.596C341.329 130.162 340.316 129.516 339.24 128.411C338.141 126.906 337.525 125.691 337.148 124.426C336.807 123.278 336.656 122.07 336.539 120.527C341.491 120.874 346.296 124.094 347.219 128.822C347.299 129.232 347.361 129.663 347.408 130.122L341.073 124.285L340.359 124.983Z" fill="#86C831" stroke="#89C834"/>
<path d="M346.788 151.02L353.336 156.924C352.693 151.741 347.923 147.593 342.682 147.504C343.359 152.772 346.961 157.521 351.917 158.372L346.078 151.722L346.788 151.02Z" fill="#86C831" stroke="#89C834"/>
<path d="M334.665 187.02L341.212 192.924C340.569 187.741 335.799 183.593 330.558 183.504C331.236 188.772 334.837 193.521 339.793 194.372L333.954 187.722L334.665 187.02Z" fill="#86C831" stroke="#89C834"/>
<path d="M341.641 166.983L336.063 173.338C337.422 173.15 338.507 172.937 339.459 172.596C340.671 172.162 341.684 171.516 342.76 170.411C343.859 168.906 344.475 167.691 344.852 166.426C345.193 165.278 345.344 164.07 345.461 162.527C340.509 162.874 335.704 166.094 334.781 170.822C334.701 171.232 334.639 171.663 334.592 172.122L340.927 166.285L341.641 166.983Z" fill="#86C831" stroke="#89C834"/>
<path d="M377.212 108.02L370.664 113.924C371.307 108.741 376.077 104.593 381.318 104.504C380.641 109.772 377.039 114.521 372.083 115.372L377.922 108.722L377.212 108.02Z" fill="#86C831" stroke="#89C834"/>
<path d="M377.212 142.02L370.664 147.924C371.307 142.741 376.077 138.593 381.318 138.504C380.641 143.772 377.039 148.521 372.083 149.372L377.922 142.722L377.212 142.02Z" fill="#86C831" stroke="#89C834"/>
<path d="M382.359 123.983L387.937 130.338C386.578 130.15 385.493 129.937 384.541 129.596C383.329 129.162 382.316 128.516 381.24 127.411C380.141 125.906 379.525 124.691 379.148 123.426C378.807 122.278 378.656 121.07 378.539 119.527C383.491 119.874 388.296 123.094 389.219 127.822C389.299 128.232 389.361 128.663 389.408 129.122L383.073 123.285L382.359 123.983Z" fill="#86C831" stroke="#89C834"/>
<path d="M388.788 150.02L395.336 155.924C394.693 150.741 389.923 146.593 384.682 146.504C385.359 151.772 388.961 156.521 393.917 157.372L388.078 150.722L388.788 150.02Z" fill="#86C831" stroke="#89C834"/>
<path d="M376.665 186.02L383.212 191.924C382.569 186.741 377.799 182.593 372.558 182.504C373.236 187.772 376.837 192.521 381.793 193.372L375.954 186.722L376.665 186.02Z" fill="#86C831" stroke="#89C834"/>
<path d="M383.641 165.983L378.063 172.338C379.422 172.15 380.507 171.937 381.459 171.596C382.671 171.162 383.684 170.516 384.76 169.411C385.859 167.906 386.475 166.691 386.852 165.426C387.193 164.278 387.344 163.07 387.461 161.527C382.509 161.874 377.704 165.094 376.781 169.822C376.701 170.232 376.639 170.663 376.592 171.122L382.927 165.285L383.641 165.983Z" fill="#86C831" stroke="#89C834"/>
<path d="M11.2116 109.02L4.66399 114.924C5.30704 109.741 10.0772 105.593 15.3185 105.504C14.6406 110.772 11.0388 115.521 6.08283 116.372L11.9221 109.722L11.2116 109.02Z" fill="#86C831" stroke="#89C834"/>
<path d="M11.2116 143.02L4.66399 148.924C5.30704 143.741 10.0772 139.593 15.3185 139.504C14.6406 144.772 11.0388 149.521 6.08283 150.372L11.9221 143.722L11.2116 143.02Z" fill="#86C831" stroke="#89C834"/>
<path d="M16.3589 124.983L21.9371 131.338C20.5781 131.15 19.4932 130.937 18.5405 130.596C17.3291 130.162 16.3159 129.516 15.2401 128.411C14.1409 126.906 13.5248 125.691 13.1484 124.426C12.8071 123.278 12.6563 122.07 12.5392 120.527C17.4913 120.874 22.2959 124.094 23.2191 128.822C23.2991 129.232 23.3609 129.663 23.4083 130.122L17.0735 124.285L16.3589 124.983Z" fill="#86C831" stroke="#89C834"/>
<path d="M22.7884 151.02L29.336 156.924C28.693 151.741 23.9228 147.593 18.6815 147.504C19.3594 152.772 22.9612 157.521 27.9172 158.372L22.0779 151.722L22.7884 151.02Z" fill="#86C831" stroke="#89C834"/>
<path d="M10.6647 187.02L17.2122 192.924C16.5692 187.741 11.799 183.593 6.55774 183.504C7.23567 188.772 10.8374 193.521 15.7934 194.372L9.95411 187.722L10.6647 187.02Z" fill="#86C831" stroke="#89C834"/>
<path d="M17.6411 166.983L12.0629 173.338C13.4219 173.15 14.5068 172.937 15.4595 172.596C16.6709 172.162 17.6841 171.516 18.7599 170.411C19.8591 168.906 20.4752 167.691 20.8516 166.426C21.1929 165.278 21.3437 164.07 21.4608 162.527C16.5087 162.874 11.7041 166.094 10.7809 170.822C10.7009 171.232 10.6391 171.663 10.5917 172.122L16.9265 166.285L17.6411 166.983Z" fill="#86C831" stroke="#89C834"/>
<path d="M53.2116 108.02L46.664 113.924C47.307 108.741 52.0772 104.593 57.3185 104.504C56.6406 109.772 53.0388 114.521 48.0828 115.372L53.9221 108.722L53.2116 108.02Z" fill="#86C831" stroke="#89C834"/>
<path d="M53.2116 142.02L46.664 147.924C47.307 142.741 52.0772 138.593 57.3185 138.504C56.6406 143.772 53.0388 148.521 48.0828 149.372L53.9221 142.722L53.2116 142.02Z" fill="#86C831" stroke="#89C834"/>
<path d="M58.3589 123.983L63.9371 130.338C62.5781 130.15 61.4932 129.937 60.5405 129.596C59.3291 129.162 58.3159 128.516 57.2401 127.411C56.1409 125.906 55.5248 124.691 55.1484 123.426C54.8071 122.278 54.6563 121.07 54.5392 119.527C59.4913 119.874 64.2959 123.094 65.2191 127.822C65.2991 128.232 65.3609 128.663 65.4083 129.122L59.0735 123.285L58.3589 123.983Z" fill="#86C831" stroke="#89C834"/>
<path d="M64.7884 150.02L71.336 155.924C70.693 150.741 65.9228 146.593 60.6815 146.504C61.3594 151.772 64.9612 156.521 69.9172 157.372L64.0779 150.722L64.7884 150.02Z" fill="#86C831" stroke="#89C834"/>
<path d="M52.6647 186.02L59.2122 191.924C58.5692 186.741 53.799 182.593 48.5577 182.504C49.2357 187.772 52.8374 192.521 57.7934 193.372L51.9541 186.722L52.6647 186.02Z" fill="#86C831" stroke="#89C834"/>
<path d="M59.6411 165.983L54.0629 172.338C55.4219 172.15 56.5068 171.937 57.4595 171.596C58.6709 171.162 59.6841 170.516 60.7599 169.411C61.8591 167.906 62.4752 166.691 62.8516 165.426C63.1929 164.278 63.3437 163.07 63.4608 161.527C58.5087 161.874 53.7041 165.094 52.7809 169.822C52.7009 170.232 52.6391 170.663 52.5917 171.122L58.9265 165.285L59.6411 165.983Z" fill="#86C831" stroke="#89C834"/>
</svg>
